#Comment line ignore any data following # character 
#Hierarchical Translation and Rotation (.htr) file 
[Header]	
#Header keywords are followed by a single value 
FileType HTR		#Single word string
DataType HTRS		#Translation followed by rotation and scale data
FileVersion 1		#integer
NumSegments 84		#integer
NumFrames 2		#integer
DataFrameRate 30		#integer, data frame rate in this file
EulerRotationOrder ZYX
CalibrationUnits mm
RotationUnits Degrees
GlobalAxisofGravity Y
BoneLengthAxis Y
ScaleFactor 1.00
[SegmentNames&Hierarchy]
#CHILD	PARENT
MASTER GLOBAL
root MASTER
chest root
L_mid_tent01 root
R_mid_tent01 root
spine01 root
Bip01_Neck chest
L_humerus chest
R_humerus chest
weapon_bone chest
Bip01_Head Bip01_Neck
eye_left_bone Bip01_Head
eye_right_bone Bip01_Head
L_forearm L_humerus
L_front_hand L_forearm
L_weapon_bone L_forearm
L_front_hand01_01 L_front_hand
L_front_hand02_01 L_front_hand
L_front_hand03_01 L_front_hand
L_front_hand01_02 L_front_hand01_01
L_front_hand02_02 L_front_hand02_01
L_front_hand03_02 L_front_hand03_01
R_forearm R_humerus
R_front_hand R_forearm
R_weapon_bone R_forearm
R_front_hand01_01 R_front_hand
R_front_hand02_01 R_front_hand
R_front_hand03_01 R_front_hand
R_front_hand01_02 R_front_hand01_01
R_front_hand02_02 R_front_hand02_01
R_front_hand03_02 R_front_hand03_01
null_rope01_connect L_mid_tent01
Rope1_Seg01 null_rope01_connect
Rope1_Seg02 Rope1_Seg01
Rope1_Seg03 Rope1_Seg02
Rope1_Seg04 Rope1_Seg03
Rope1_Seg05 Rope1_Seg04
Rope1_Seg06 Rope1_Seg05
Rope1_Seg07 Rope1_Seg06
Rope1_Seg09 Rope1_Seg07
L_mid_hand01 Rope1_Seg09
L_mid_hand02 Rope1_Seg09
L_mid_hand03 Rope1_Seg09
null_rope02_connect R_mid_tent01
Rope2_Seg01 null_rope02_connect
Rope2_Seg02 Rope2_Seg01
Rope2_Seg03 Rope2_Seg02
Rope2_Seg04 Rope2_Seg03
Rope2_Seg05 Rope2_Seg04
Rope2_Seg06 Rope2_Seg05
Rope2_Seg07 Rope2_Seg06
Rope2_Seg09 Rope2_Seg07
R_mid_hand01 Rope2_Seg09
R_mid_hand02 Rope2_Seg09
R_mid_hand03 Rope2_Seg09
spine02 spine01
spine03 spine02
pelvis spine03
null_rope03_connect pelvis
null_rope04_connect pelvis
Rope3_Seg01 null_rope03_connect
Rope3_Seg02 Rope3_Seg01
Rope3_Seg03 Rope3_Seg02
Rope3_Seg04 Rope3_Seg03
Rope3_Seg05 Rope3_Seg04
Rope3_Seg06 Rope3_Seg05
Rope3_Seg07 Rope3_Seg06
Rope3_Seg08 Rope3_Seg07
Rope3_Seg09 Rope3_Seg08
R_rear_hand01 Rope3_Seg09
R_rear_hand02 Rope3_Seg09
R_rear_hand03 Rope3_Seg09
Rope4_Seg01 null_rope04_connect
Rope4_Seg02 Rope4_Seg01
Rope4_Seg03 Rope4_Seg02
Rope4_Seg04 Rope4_Seg03
Rope4_Seg05 Rope4_Seg04
Rope4_Seg06 Rope4_Seg05
Rope4_Seg07 Rope4_Seg06
Rope4_Seg08 Rope4_Seg07
Rope4_Seg09 Rope4_Seg08
L_rear_hand01 Rope4_Seg09
L_rear_hand02 Rope4_Seg09
L_rear_hand03 Rope4_Seg09
[BasePosition]
#SegmentName Tx, Ty, Tz, Rx, Ry, Rz, BoneLength
MASTER 0.000000 0.000000 0.000000 -90.000000 0.000000 0.000000 10.000000 
root 0.000000 0.000000 0.000000 0.000000 0.000000 0.000000 10.000000 
chest 0.000000 0.000000 0.000000 0.000000 0.000000 0.000000 10.000000 
L_mid_tent01 0.000000 0.000000 0.000000 0.000000 0.000000 0.000000 10.000000 
R_mid_tent01 0.000000 0.000000 0.000000 0.000000 0.000000 0.000000 10.000000 
spine01 0.000000 0.000000 0.000000 0.000000 0.000000 0.000000 10.000000 
Bip01_Neck 0.000000 0.000000 0.000000 0.000000 0.000000 0.000000 10.000000 
L_humerus 0.000000 0.000000 0.000000 0.000000 0.000000 0.000000 10.000000 
R_humerus 0.000000 0.000000 0.000000 0.000000 0.000000 0.000000 10.000000 
weapon_bone 0.000000 0.000000 0.000000 0.000000 0.000000 0.000000 10.000000 
Bip01_Head 0.000000 0.000000 0.000000 0.000000 0.000000 0.000000 10.000000 
eye_left_bone 0.000000 0.000000 0.000000 0.000000 0.000000 0.000000 10.000000 
eye_right_bone 0.000000 0.000000 0.000000 0.000000 0.000000 0.000000 10.000000 
L_forearm 0.000000 0.000000 0.000000 0.000000 0.000000 0.000000 10.000000 
L_front_hand 0.000000 0.000000 0.000000 0.000000 0.000000 0.000000 10.000000 
L_weapon_bone 0.000000 0.000000 0.000000 0.000000 0.000000 0.000000 10.000000 
L_front_hand01_01 0.000000 0.000000 0.000000 0.000000 0.000000 0.000000 10.000000 
L_front_hand02_01 0.000000 0.000000 0.000000 0.000000 0.000000 0.000000 10.000000 
L_front_hand03_01 0.000000 0.000000 0.000000 0.000000 0.000000 0.000000 10.000000 
L_front_hand01_02 0.000000 0.000000 0.000000 0.000000 0.000000 0.000000 10.000000 
L_front_hand02_02 0.000000 0.000000 0.000000 0.000000 0.000000 0.000000 10.000000 
L_front_hand03_02 0.000000 0.000000 0.000000 0.000000 0.000000 0.000000 10.000000 
R_forearm 0.000000 0.000000 0.000000 0.000000 0.000000 0.000000 10.000000 
R_front_hand 0.000000 0.000000 0.000000 0.000000 0.000000 0.000000 10.000000 
R_weapon_bone 0.000000 0.000000 0.000000 0.000000 0.000000 0.000000 10.000000 
R_front_hand01_01 0.000000 0.000000 0.000000 0.000000 0.000000 0.000000 10.000000 
R_front_hand02_01 0.000000 0.000000 0.000000 0.000000 0.000000 0.000000 10.000000 
R_front_hand03_01 0.000000 0.000000 0.000000 0.000000 0.000000 0.000000 10.000000 
R_front_hand01_02 0.000000 0.000000 0.000000 0.000000 0.000000 0.000000 10.000000 
R_front_hand02_02 0.000000 0.000000 0.000000 0.000000 0.000000 0.000000 10.000000 
R_front_hand03_02 0.000000 0.000000 0.000000 0.000000 0.000000 0.000000 10.000000 
null_rope01_connect 0.000000 0.000000 0.000000 0.000000 0.000000 0.000000 10.000000 
Rope1_Seg01 0.000000 0.000000 0.000000 0.000000 0.000000 0.000000 10.000000 
Rope1_Seg02 0.000000 0.000000 0.000000 0.000000 0.000000 0.000000 10.000000 
Rope1_Seg03 0.000000 0.000000 0.000000 0.000000 0.000000 0.000000 10.000000 
Rope1_Seg04 0.000000 0.000000 0.000000 0.000000 0.000000 0.000000 10.000000 
Rope1_Seg05 0.000000 0.000000 0.000000 0.000000 0.000000 0.000000 10.000000 
Rope1_Seg06 0.000000 0.000000 0.000000 0.000000 0.000000 0.000000 10.000000 
Rope1_Seg07 0.000000 0.000000 0.000000 0.000000 0.000000 0.000000 10.000000 
Rope1_Seg09 0.000000 0.000000 0.000000 0.000000 0.000000 0.000000 10.000000 
L_mid_hand01 0.000000 0.000000 0.000000 0.000000 0.000000 0.000000 10.000000 
L_mid_hand02 0.000000 0.000000 0.000000 0.000000 0.000000 0.000000 10.000000 
L_mid_hand03 0.000000 0.000000 0.000000 0.000000 0.000000 0.000000 10.000000 
null_rope02_connect 0.000000 0.000000 0.000000 0.000000 0.000000 0.000000 10.000000 
Rope2_Seg01 0.000000 0.000000 0.000000 0.000000 0.000000 0.000000 10.000000 
Rope2_Seg02 0.000000 0.000000 0.000000 0.000000 0.000000 0.000000 10.000000 
Rope2_Seg03 0.000000 0.000000 0.000000 0.000000 0.000000 0.000000 10.000000 
Rope2_Seg04 0.000000 0.000000 0.000000 0.000000 0.000000 0.000000 10.000000 
Rope2_Seg05 0.000000 0.000000 0.000000 0.000000 0.000000 0.000000 10.000000 
Rope2_Seg06 0.000000 0.000000 0.000000 0.000000 0.000000 0.000000 10.000000 
Rope2_Seg07 0.000000 0.000000 0.000000 0.000000 0.000000 0.000000 10.000000 
Rope2_Seg09 0.000000 0.000000 0.000000 0.000000 0.000000 0.000000 10.000000 
R_mid_hand01 0.000000 0.000000 0.000000 0.000000 0.000000 0.000000 10.000000 
R_mid_hand02 0.000000 0.000000 0.000000 0.000000 0.000000 0.000000 10.000000 
R_mid_hand03 0.000000 0.000000 0.000000 0.000000 0.000000 0.000000 10.000000 
spine02 0.000000 0.000000 0.000000 0.000000 0.000000 0.000000 10.000000 
spine03 0.000000 0.000000 0.000000 0.000000 0.000000 0.000000 10.000000 
pelvis 0.000000 0.000000 0.000000 0.000000 0.000000 0.000000 10.000000 
null_rope03_connect 0.000000 0.000000 0.000000 0.000000 0.000000 0.000000 10.000000 
null_rope04_connect 0.000000 0.000000 0.000000 0.000000 0.000000 0.000000 10.000000 
Rope3_Seg01 0.000000 0.000000 0.000000 0.000000 0.000000 0.000000 10.000000 
Rope3_Seg02 0.000000 0.000000 0.000000 0.000000 0.000000 0.000000 10.000000 
Rope3_Seg03 0.000000 0.000000 0.000000 0.000000 0.000000 0.000000 10.000000 
Rope3_Seg04 0.000000 0.000000 0.000000 0.000000 0.000000 0.000000 10.000000 
Rope3_Seg05 0.000000 0.000000 0.000000 0.000000 0.000000 0.000000 10.000000 
Rope3_Seg06 0.000000 0.000000 0.000000 0.000000 0.000000 0.000000 10.000000 
Rope3_Seg07 0.000000 0.000000 0.000000 0.000000 0.000000 0.000000 10.000000 
Rope3_Seg08 0.000000 0.000000 0.000000 0.000000 0.000000 0.000000 10.000000 
Rope3_Seg09 0.000000 0.000000 0.000000 0.000000 0.000000 0.000000 10.000000 
R_rear_hand01 0.000000 0.000000 0.000000 0.000000 0.000000 0.000000 10.000000 
R_rear_hand02 0.000000 0.000000 0.000000 0.000000 0.000000 0.000000 10.000000 
R_rear_hand03 0.000000 0.000000 0.000000 0.000000 0.000000 0.000000 10.000000 
Rope4_Seg01 0.000000 0.000000 0.000000 0.000000 0.000000 0.000000 10.000000 
Rope4_Seg02 0.000000 0.000000 0.000000 0.000000 0.000000 0.000000 10.000000 
Rope4_Seg03 0.000000 0.000000 0.000000 0.000000 0.000000 0.000000 10.000000 
Rope4_Seg04 0.000000 0.000000 0.000000 0.000000 0.000000 0.000000 10.000000 
Rope4_Seg05 0.000000 0.000000 0.000000 0.000000 0.000000 0.000000 10.000000 
Rope4_Seg06 0.000000 0.000000 0.000000 0.000000 0.000000 0.000000 10.000000 
Rope4_Seg07 0.000000 0.000000 0.000000 0.000000 0.000000 0.000000 10.000000 
Rope4_Seg08 0.000000 0.000000 0.000000 0.000000 0.000000 0.000000 10.000000 
Rope4_Seg09 0.000000 0.000000 0.000000 0.000000 0.000000 0.000000 10.000000 
L_rear_hand01 0.000000 0.000000 0.000000 0.000000 0.000000 0.000000 10.000000 
L_rear_hand02 0.000000 0.000000 0.000000 0.000000 0.000000 0.000000 10.000000 
L_rear_hand03 0.000000 0.000000 0.000000 0.000000 0.000000 0.000000 10.000000 
#Beginning of Data. Separated by tabs
#Fr	Tx	Ty	Tz	Rx	Ry	Rz	SF
[MASTER]
10 -1075.510254 -1621.520752 0.000000 0.000135 0.002343 -83.395210 1945.777954
11 -1134.323120 -1825.238403 0.000000 0.000162 0.002342 -82.070625 2148.996094
[root]
10 -62.822163 7.775416 1029.833496 -101.816628 -8.411921 176.891327 1031.777100
11 -62.822178 -0.955806 1013.546448 -100.599380 -8.318348 177.289825 1015.491943
[chest]
10 -84.512650 -34.090519 0.000000 18.613895 -0.745816 156.387161 91.129311
11 -84.512650 -34.090519 0.000000 19.509905 -0.743764 156.386124 91.129311
[L_mid_tent01]
10 23.228750 24.509907 -223.761200 -18.945330 31.585476 -27.418812 226.294907
11 23.228750 24.509907 -223.761200 -19.170620 34.692142 -26.788231 226.294907
[R_mid_tent01]
10 23.228794 24.509907 226.238495 -159.708435 4.831217 -18.627380 228.744751
11 23.228794 24.509907 226.238495 -159.315765 12.413507 -15.798579 228.744751
[spine01]
10 -0.361383 -0.195265 0.000000 0.001815 0.001488 11.320962 0.410763
11 -0.361383 -0.195265 0.000000 0.001815 0.001488 11.320962 0.410763
[Bip01_Neck]
10 165.484543 71.581718 0.000119 175.896118 1.177290 24.871183 180.302734
11 165.484543 71.581718 0.000119 175.896118 1.177290 24.871181 180.302734
[L_humerus]
10 -13.983130 -135.272980 -120.471481 166.456207 13.248395 -108.068832 181.680161
11 -13.983130 -135.272980 -120.471481 166.194733 14.304115 -108.043236 181.680161
[R_humerus]
10 -13.983309 -135.273102 125.287651 -167.117172 -3.327837 -103.744225 184.909012
11 -13.983309 -135.273102 125.287651 -167.004471 -4.437150 -103.669388 184.909012
[weapon_bone]
10 235.964890 -300.705902 0.000000 0.000000 -89.951546 -128.212341 382.234833
11 235.964890 -300.705902 0.000000 0.000000 -89.951546 -128.212341 382.234833
[Bip01_Head]
10 201.313736 211.516785 15.929799 18.788059 6.728242 -73.816917 292.438599
11 201.313721 211.516785 15.929809 18.383255 6.363981 -73.619705 292.438568
[eye_left_bone]
10 -24.626970 125.451866 -64.772606 0.000000 -90.000000 -99.840431 143.318359
11 -24.626970 125.451866 -64.772606 0.000000 -90.000000 -99.840431 143.318359
[eye_right_bone]
10 -24.626970 125.451866 64.327362 0.000000 -89.965736 80.156380 143.117676
11 -24.626970 125.451866 64.327362 0.000000 -89.980217 80.156380 143.117676
[L_forearm]
10 322.776093 0.000000 -0.000119 0.000357 -0.002320 -107.506004 322.776093
11 322.776093 0.000000 -0.000119 0.000357 -0.002320 -107.505997 322.776093
[L_front_hand]
10 241.149185 -0.042021 -3.300071 -179.431961 -2.195943 -5.942918 241.171753
11 241.149185 -0.042021 -3.300071 -179.431961 -2.195943 -5.942918 241.171753
[L_weapon_bone]
10 156.183838 0.000000 0.000000 0.000014 0.000007 0.000001 156.183838
11 156.183838 0.000000 0.000000 0.000014 0.000007 0.000001 156.183838
[L_front_hand01_01]
10 86.095154 20.947098 -0.655860 0.139491 -0.584553 24.181786 88.609184
11 86.095154 20.947098 -0.655860 0.139491 -0.584553 24.181786 88.609184
[L_front_hand02_01]
10 86.935165 -11.437475 24.513514 119.190460 -21.905655 -12.119137 91.046425
11 86.935165 -11.437475 24.513514 119.190460 -21.905661 -12.119138 91.046425
[L_front_hand03_01]
10 86.637497 -14.123976 -20.424902 -120.437630 20.554031 -14.327168 90.126129
11 86.637497 -14.123976 -20.424902 -120.437630 20.554031 -14.327168 90.126129
[L_front_hand01_02]
10 71.020905 -0.000179 0.000030 0.000334 -0.002323 -106.379684 71.020905
11 71.020905 -0.000179 0.000030 0.000334 -0.002323 -106.379684 71.020905
[L_front_hand02_02]
10 71.020927 -0.000119 0.000060 0.000334 -0.002323 -106.379684 71.020927
11 71.020927 -0.000119 0.000060 0.000334 -0.002323 -106.379684 71.020927
[L_front_hand03_02]
10 71.020905 -0.000060 0.000060 0.000334 -0.002323 -106.379684 71.020905
11 71.020905 -0.000060 0.000060 0.000334 -0.002323 -106.379684 71.020905
[R_forearm]
10 322.776428 -0.000060 0.000030 0.196737 0.083011 -114.368637 322.776428
11 322.776428 -0.000060 0.000030 0.196737 0.083011 -114.368637 322.776428
[R_front_hand]
10 238.847015 -0.006795 2.210259 -0.341870 1.692705 -0.151779 238.857239
11 238.847015 -0.006795 2.210259 -0.341870 1.692706 -0.151780 238.857239
[R_weapon_bone]
10 155.664093 0.002503 -0.000030 0.003487 0.001180 -90.988930 155.664078
11 155.664093 0.002503 -0.000030 0.003487 0.001180 -90.988930 155.664078
[R_front_hand01_01]
10 87.624611 14.231146 22.918642 -119.218056 -22.033409 12.303375 91.683487
11 87.624611 14.231146 22.918642 -119.218056 -22.033409 12.303375 91.683487
[R_front_hand02_01]
10 89.356956 14.367283 -19.491137 120.545532 20.947184 14.823009 92.579636
11 89.356956 14.367283 -19.491137 120.545532 20.947182 14.823009 92.579636
[R_front_hand03_01]
10 87.286232 -22.307278 -0.143439 -0.231628 -0.392922 -24.567768 90.091743
11 87.286232 -22.307278 -0.143439 -0.231628 -0.392922 -24.567772 90.091743
[R_front_hand01_02]
10 71.020905 0.000060 0.000119 0.002323 -0.000334 106.381714 71.020905
11 71.020905 0.000060 0.000119 0.002323 -0.000334 106.381714 71.020905
[R_front_hand02_02]
10 71.020844 -0.000030 -0.000119 0.002323 -0.000334 106.381714 71.020836
11 71.020844 -0.000030 -0.000119 0.002323 -0.000334 106.381714 71.020836
[R_front_hand03_02]
10 71.020905 0.000000 0.000030 0.002323 -0.000334 106.381714 71.020905
11 71.020905 0.000000 0.000030 0.002323 -0.000334 106.381714 71.020905
[null_rope01_connect]
10 328.732483 0.000000 -0.000238 103.399132 54.332111 47.968948 328.732483
11 328.732483 0.000000 -0.000238 99.808571 54.091518 42.937504 328.732483
[Rope1_Seg01]
10 -0.000011 0.000027 0.000046 36.333038 7.519688 63.811680 0.000054
11 -0.000013 0.000025 0.000051 38.121624 7.588150 63.198971 0.000058
[Rope1_Seg02]
10 139.999863 -0.000179 0.000000 -1.733582 0.130843 0.692161 139.999863
11 139.999863 -0.000179 0.000000 -1.123945 -0.350188 0.939886 139.999863
[Rope1_Seg03]
10 139.999924 0.000060 -0.000060 -2.598464 0.170326 1.110883 139.999924
11 139.999924 0.000060 -0.000060 -1.544014 -0.577149 1.463657 139.999924
[Rope1_Seg04]
10 139.999924 -0.000060 -0.000119 -5.306066 -0.501247 3.684328 139.999924
11 139.999924 -0.000060 -0.000119 -0.690853 -2.281149 2.968956 139.999924
[Rope1_Seg05]
10 139.999832 0.000119 -0.000060 -16.547365 3.743319 7.805064 139.999832
11 139.999832 0.000119 -0.000060 -7.408607 -6.896262 15.165632 139.999832
[Rope1_Seg06]
10 139.999954 0.000119 -0.000060 -57.184437 18.380844 -15.484442 139.999954
11 139.999954 0.000119 -0.000060 -60.454994 43.073223 5.405326 139.999954
[Rope1_Seg07]
10 139.999985 0.000060 0.000000 -46.995342 3.534174 1.313722 139.999985
11 139.999985 0.000060 0.000000 -8.416710 2.430586 7.601344 139.999985
[Rope1_Seg09]
10 121.602913 0.000119 -0.000089 -89.793175 -1.359789 0.847147 121.602913
11 121.602913 0.000119 -0.000089 -89.793175 -1.359789 0.847147 121.602913
[L_mid_hand01]
10 103.859421 1.038730 8.195221 106.855484 -31.239275 -9.461397 104.187431
11 103.859421 1.038730 8.195221 106.855484 -31.239275 -9.461397 104.187431
[L_mid_hand02]
10 105.572853 -4.139662 -10.864139 -142.331345 25.752670 -28.774628 106.211075
11 105.572853 -4.139662 -10.864139 -142.331345 25.752670 -28.774628 106.211075
[L_mid_hand03]
10 104.641464 17.579376 -3.913581 -16.122810 9.734291 34.223598 106.179977
11 104.641464 17.579376 -3.913581 -16.122810 9.734291 34.223598 106.179977
[null_rope02_connect]
10 328.732849 0.000179 -0.000119 141.395386 -79.072815 101.176109 328.732849
11 328.732849 0.000179 -0.000119 174.066376 -76.532570 69.621338 328.732849
[Rope2_Seg01]
10 -0.000119 -0.000107 -0.000153 88.612228 -26.854218 66.628738 0.000221
11 -0.000121 -0.000102 -0.000153 88.681610 -32.169415 65.544388 0.000220
[Rope2_Seg02]
10 139.999741 -0.000060 -0.000119 -0.162859 3.201394 -0.398699 139.999756
11 139.999741 -0.000060 -0.000119 -0.087300 3.597093 -1.099578 139.999756
[Rope2_Seg03]
10 140.000107 0.000030 0.000000 -0.299380 4.220000 -0.514172 140.000107
11 140.000107 0.000030 0.000000 -0.180664 4.877650 -1.491130 140.000107
[Rope2_Seg04]
10 139.999802 0.000000 -0.000060 -0.597210 5.802082 -0.677331 139.999802
11 139.999802 0.000000 -0.000060 -0.408290 6.933469 -2.104197 139.999802
[Rope2_Seg05]
10 139.999985 -0.000060 0.000119 -1.355473 8.521084 -0.907764 139.999985
11 139.999985 -0.000060 0.000119 -1.115994 11.188001 -3.542141 139.999985
[Rope2_Seg06]
10 139.999893 -0.000030 -0.000119 -8.308639 23.272865 -1.651457 139.999893
11 139.999893 -0.000030 -0.000119 -5.573288 25.861135 -9.775380 139.999893
[Rope2_Seg07]
10 139.999893 0.000060 -0.000060 -15.201172 17.165342 1.019323 139.999893
11 139.999893 0.000060 -0.000060 -10.173374 12.926476 -2.128196 139.999893
[Rope2_Seg09]
10 121.338966 0.000089 -0.000060 33.793236 -1.359788 -0.847141 121.338966
11 121.338966 0.000089 -0.000060 33.793236 -1.359788 -0.847141 121.338966
[R_mid_hand01]
10 104.680779 11.144459 -10.335981 -41.523792 25.424656 28.595957 105.778534
11 104.680779 11.144459 -10.335981 -41.523792 25.424656 28.595957 105.778534
[R_mid_hand02]
10 104.070427 2.443552 8.231699 72.847389 -32.746803 10.013901 104.424065
11 104.070427 2.443552 8.231699 72.847389 -32.746803 10.013901 104.424065
[R_mid_hand03]
10 106.028137 -11.221827 -5.996406 -167.901306 10.259192 -37.009720 106.788818
11 106.028137 -11.221827 -5.996406 -167.901306 10.259192 -37.009720 106.788818
[spine02]
10 129.756927 0.001550 0.000119 0.001147 -1.797837 -7.854275 129.756927
11 129.756927 0.001550 0.000119 0.001147 -1.797837 -7.854275 129.756927
[spine03]
10 79.115631 0.000000 -0.000119 1.459971 -2.848092 23.765959 79.115631
11 79.115631 0.000000 -0.000119 1.459971 -2.848092 23.765965 79.115631
[pelvis]
10 169.435242 0.051022 0.000000 -0.000005 0.000003 -4.322055 169.435257
11 169.435242 0.051022 0.000000 -0.000005 0.000003 -4.322055 169.435257
[null_rope03_connect]
10 -1.257226 -2.466202 137.391083 -148.328400 78.821777 106.999680 137.418976
11 -1.257226 -2.466202 137.391083 -136.912598 78.618828 118.453156 137.418976
[null_rope04_connect]
10 -1.259640 -2.480268 -137.844437 -148.328400 78.821777 106.999680 137.872513
11 -1.259640 -2.480268 -137.844437 -136.912598 78.618828 118.453156 137.872513
[Rope3_Seg01]
10 -0.000004 -0.000058 0.000046 -135.820511 -13.771957 129.609497 0.000074
11 0.000000 -0.000057 0.000051 -136.613724 -20.776449 118.407532 0.000077
[Rope3_Seg02]
10 139.999924 -0.000119 0.000060 0.775927 1.249604 4.279593 139.999924
11 139.999924 -0.000119 0.000060 1.307875 -2.199230 3.365689 139.999924
[Rope3_Seg03]
10 139.999924 -0.000119 0.000119 0.807792 1.705346 5.580527 139.999924
11 139.999924 -0.000119 0.000119 1.403507 -2.639332 4.259699 139.999924
[Rope3_Seg04]
10 139.999924 0.000119 0.000000 0.808894 2.138673 7.645215 139.999924
11 139.999924 0.000119 0.000000 1.539796 -4.016057 5.587056 139.999924
[Rope3_Seg05]
10 139.999924 -0.000238 0.000060 0.975456 0.151453 13.347383 139.999924
11 139.999924 -0.000238 0.000060 2.449790 -10.102632 8.279937 139.999924
[Rope3_Seg06]
10 139.999893 -0.000119 -0.000060 1.041475 6.885783 9.901840 139.999893
11 139.999893 -0.000119 -0.000060 0.909932 1.822416 7.237807 139.999893
[Rope3_Seg07]
10 139.999771 0.000060 -0.000119 3.771415 14.234337 0.328125 139.999771
11 139.999771 0.000060 -0.000119 1.442185 18.669889 3.697881 139.999771
[Rope3_Seg08]
10 139.999985 -0.000060 0.000000 3.494960 8.999762 0.381032 139.999985
11 139.999985 -0.000060 0.000000 2.731402 11.971437 3.068968 139.999985
[Rope3_Seg09]
10 90.185997 -0.000179 -0.000060 89.793228 -1.359877 -0.847183 90.185997
11 90.185997 -0.000179 -0.000060 89.793228 -1.359877 -0.847183 90.185997
[R_rear_hand01]
10 103.366196 -6.073594 -10.757982 -161.551193 16.666374 -30.088671 104.101845
11 103.366196 -6.073594 -10.757982 -161.551193 16.666374 -30.088671 104.101845
[R_rear_hand02]
10 100.509819 12.039542 -7.992327 -34.280552 19.289745 28.875523 101.543350
11 100.509819 12.039542 -7.992327 -34.280552 19.289745 28.875523 101.543350
[R_rear_hand03]
10 101.539970 5.215704 5.435467 83.366440 -30.933914 7.284830 101.819031
11 101.539970 5.215704 5.435467 83.366440 -30.933914 7.284830 101.819031
[Rope4_Seg01]
10 0.000008 0.000107 0.000000 15.808473 -24.668434 133.211670 0.000107
11 0.000000 0.000106 0.000000 31.258003 -39.629578 107.008690 0.000106
[Rope4_Seg02]
10 139.999985 0.000060 0.000119 11.535857 4.759416 -18.332964 139.999985
11 139.999985 0.000060 0.000119 3.026420 15.222911 -10.526482 139.999985
[Rope4_Seg03]
10 139.999924 0.000000 -0.000238 7.234424 1.360149 -15.462082 139.999924
11 139.999924 0.000000 -0.000238 4.787384 12.445360 -8.972447 139.999924
[Rope4_Seg04]
10 139.999985 0.000000 0.000119 4.735893 2.836392 -12.164254 139.999985
11 139.999985 0.000000 0.000119 6.284913 12.992223 -6.769845 139.999985
[Rope4_Seg05]
10 139.999802 -0.000060 -0.000119 1.376121 -2.509346 -5.318947 139.999802
11 139.999802 -0.000060 -0.000119 2.840168 1.275366 -4.247315 139.999802
[Rope4_Seg06]
10 139.999924 0.000000 0.000060 -0.175964 -7.385850 -1.701814 139.999924
11 139.999924 0.000000 0.000060 -0.151288 -7.636531 -2.908045 139.999924
[Rope4_Seg07]
10 139.999802 0.000000 0.000000 -0.174443 -12.252270 0.065160 139.999802
11 139.999802 0.000000 0.000000 -0.742300 -16.576515 -3.129317 139.999802
[Rope4_Seg08]
10 139.999924 0.000000 0.000119 -1.144377 -7.326823 -1.297929 139.999924
11 139.999924 0.000000 0.000119 -1.260086 -9.306426 -3.221003 139.999924
[Rope4_Seg09]
10 90.185791 0.000060 0.000060 -135.617828 2.228885 0.850567 90.185791
11 90.185791 0.000060 0.000060 -135.617828 2.228885 0.850567 90.185791
[L_rear_hand01]
10 101.696655 -8.392275 -7.654577 -34.454281 -18.946800 151.655121 102.329041
11 101.696655 -8.392275 -7.654577 -34.454281 -18.946800 151.655121 102.329041
[L_rear_hand02]
10 102.726799 -1.568258 5.773216 83.407906 30.330435 172.796509 102.900848
11 102.726799 -1.568258 5.773216 83.407906 30.330435 172.796509 102.900848
[L_rear_hand03]
10 104.552910 9.721220 -10.420293 -161.379868 -16.473232 -150.512238 105.519653
11 104.552910 9.721220 -10.420293 -161.379868 -16.473232 -150.512238 105.519653
